# xmcd
#
# Track frame offsets:
#	150
#	16544
#	34422
#	47326
#	57767
#	70096
#	82763
#	95345
#	113776
#	130532
#	147065
#	157966
#	170683
#	179798
#	194796
#	207585
#
# Disc length: 2974
#
# Revision: 1
# Processed by: cddbd v1.5.2PL0 Copyright (c) Steve Scherf et al.
# Submitted via: OrangeCD 5.0
# Normalized: r0:DSETVAR1
#
DISCID=d40b9c10
DTITLE=Various Artist - Dr. Boogie
DYEAR=1900
DGENRE=Blues
TTITLE0=Canned Heat - Hell's just down the road
TTITLE1=Buzzard, Tucky - Who do you love
TTITLE2=Dawson, Ronnie - I'm tore up
TTITLE3=Graham Bond Organisation - Long Tall Shorty
TTITLE4=Don Preston - Lookin'for my baby
TTITLE5=Miller, Peter - Claudine
TTITLE6=Lee, Albert - Fun Ranch Boogie
TTITLE7=Jimmy Ley and The Funkumpers - The Older The Buck
TTITLE8=Bacon Fat - Small's on 53 rD
TTITLE9=Mason, Dutch - Dust My Broom
TTITLE10=Dakus, Wes - Sour Bisquits
TTITLE11=Rockin' Jimmy - Little Rachel
TTITLE12=Smith, B. Willie - Wiggle Waggle
TTITLE13=Shine, Ralph - Up The Line
TTITLE14=Whispering Smith - Take Me Back Baby
TTITLE15=Big Jay Mc Neely - Shrt On Bread
EXTD=
EXTT0=
EXTT1=
EXTT2=
EXTT3=
EXTT4=
EXTT5=
EXTT6=
EXTT7=
EXTT8=
EXTT9=
EXTT10=
EXTT11=
EXTT12=
EXTT13=
EXTT14=
EXTT15=
PLAYORDER=
